<svg width="937" height="149" viewBox="0 0 937 149" version="1.1" xmlns="http://www.w3.org/2000/svg"><g id="Style-Guide" stroke="none" stroke-width="1" fill="none" fill-rule="evenodd"><g id="Page-1" transform="translate(-103 -309)"><g id="Colors" transform="translate(80 199)"><g id="logo-full-color" transform="translate(23 110)"><g id="Shape"><path d="M530.002 45.397v61.169h-17.896V0h17.896v28.583h17.539l5.43 16.814H530zm256.258 26.42h-55.517c.477 6.406 2.545 11.503 6.204 15.293 3.659 3.737 8.351 5.605 14.078 5.605 4.454 0 8.14-1.068 11.056-3.203 1.246-.929 3.285-3.096 6.115-6.5l15.123 8.793c-1.64 2.152-2.887 3.696-3.74 4.633-2.598 2.855-5.382 5.204-8.351 7.045a33.37 33.37 0 01-9.624 4.044c-3.447.854-7.185 1.28-11.215 1.28-11.56 0-20.839-3.736-27.838-11.208-7-7.526-10.5-17.508-10.5-29.945 0-12.33 3.394-22.31 10.181-29.944 6.84-7.526 15.908-11.289 27.202-11.289 11.4 0 20.415 3.657 27.043 10.97 6.575 7.258 9.863 17.32 9.863 30.183l-.08 4.244zm-18.373-14.731c-2.492-9.608-8.51-14.412-18.055-14.412-2.174 0-4.215.334-6.124 1.001a17.489 17.489 0 00-5.21 2.882 18.232 18.232 0 00-4.017 4.524c-1.113 1.762-1.962 3.763-2.545 6.005h35.951zM656.5 25.506a35.057 35.057 0 0124.465 10.922 35.867 35.867 0 019.995 24.896v43.98h-18.87V60.75c-.063-9.018-7.492-16.42-16.576-16.503h-.147c-9.065 0-16.723 7.779-16.723 16.989v44.07h-18.876v-44.44c-.12-9.107-7.456-16.455-16.532-16.562h-.16c-9.078 0-16.755 7.792-16.755 17.021v43.98h-18.436V60.75c0-19.422 15.87-35.23 35.382-35.23a35.47 35.47 0 0126.038 11.426 35.561 35.561 0 0127.183-11.439h.012zm220.15 35.729v44.07h-18.876v-44.44c-.12-9.107-7.456-16.455-16.533-16.562h-.159c-9.078 0-16.755 7.792-16.755 17.021v43.98H805.89V60.75c0-19.422 15.871-35.23 35.383-35.23a35.47 35.47 0 0126.037 11.426c8.263 7.358 9.34 15.08 9.34 24.29zm37.856-15.838v61.169H896.61V0h17.896v28.583H937l-6.016 16.814h-16.478zM442.022 28.583h17.896v4.233c3.288-3.47 6.363-4.65 8.75-5.304 2.386-.655 5.673-1.09 9.226-1.09 4.72 0 9.65 1.547 14.794 4.643l-7.764 13.76c-1.225-.66-2.558-2.23-10.25-2.01-9.756.28-14.756 8.48-14.756 23.318v40.433h-17.896V28.583zm-46.899 0H413.1v77.983h-17.976v-8.167c-7.37 6.94-15.298 10.409-23.782 10.409-10.71 0-19.566-3.897-26.565-11.69-6.947-7.953-10.42-17.88-10.42-29.784 0-11.69 3.473-21.43 10.42-29.223 6.946-7.793 15.642-11.69 26.088-11.69 9.015 0 17.1 3.737 24.26 11.21v-9.048zM352.65 67.334c0 7.473 1.988 13.558 5.965 18.255 4.083 4.75 9.227 7.126 15.43 7.126 6.629 0 11.984-2.295 16.067-6.886 4.083-4.75 6.125-10.782 6.125-18.094 0-7.313-2.042-13.345-6.125-18.095-4.083-4.644-9.385-6.966-15.907-6.966-6.151 0-11.295 2.349-15.43 7.046-4.084 4.75-6.125 10.622-6.125 17.614zM257.334 149h-17.896V28.583h17.896v8.487c7.052-7.1 15.059-10.649 24.02-10.649 10.658 0 19.434 3.95 26.327 11.85 7 7.846 10.5 17.747 10.5 29.704 0 11.69-3.474 21.43-10.42 29.223-6.894 7.74-15.59 11.61-26.089 11.61-9.067 0-17.18-3.657-24.338-10.97V149zm42.552-80.945c0-7.473-2.015-13.558-6.045-18.255-4.082-4.75-9.226-7.126-15.43-7.126-6.575 0-11.904 2.296-15.987 6.886S256.3 60.182 256.3 67.654c0 7.313 2.041 13.345 6.124 18.095 4.03 4.644 9.332 6.966 15.908 6.966 6.204 0 11.32-2.349 15.35-7.046 4.136-4.697 6.204-10.568 6.204-17.614zm-79.677 3.76H164.69c.478 6.404 2.546 11.502 6.204 15.292 3.66 3.736 8.352 5.604 14.079 5.604 4.454 0 8.139-1.067 11.055-3.202 1.217-.907 3.203-3.005 5.958-6.293l15.141 8.777c-1.58 2.06-2.78 3.54-3.6 4.441-2.599 2.856-5.382 5.204-8.352 7.046a33.37 33.37 0 01-9.624 4.043c-3.447.854-7.185 1.281-11.215 1.281-11.56 0-20.839-3.736-27.838-11.209-7-7.526-10.499-17.507-10.499-29.944 0-12.33 3.394-22.311 10.18-29.944 6.841-7.526 15.908-11.29 27.203-11.29 11.4 0 20.414 3.657 27.043 10.97 6.575 7.259 9.862 17.32 9.862 30.184l-.08 4.243zM201.86 57.226c-2.492-9.608-8.51-14.412-18.055-14.412-2.174 0-4.215.334-6.124 1a17.489 17.489 0 00-5.21 2.883 18.232 18.232 0 00-4.017 4.524c-1.113 1.761-1.962 3.763-2.545 6.005h35.951z" fill="#222"/><path d="M4.4 12h101.2c2.43 0 4.4 1.952 4.4 4.36v100.28c0 2.408-1.97 4.36-4.4 4.36H4.4c-2.43 0-4.4-1.952-4.4-4.36V16.36C0 13.952 1.97 12 4.4 12zm73.751 65.212c2.266 0 3.502-2.924 1.826-4.562L38.424 29.797C36.91 28.107 34 29.278 34 31.68v62.942c0 2.281 2.736 3.623 4.424 1.883l12.662-13.058 7.75 18.917c.57 1.34 2.07 2.009 3.41 1.423l7.183-3.139a2.724 2.724 0 001.38-3.515l-8.157-19.921H78.15z" fill="#FFA800"/></g></g></g></g></g></svg>