<svg version="1.2" xmlns="http://www.w3.org/2000/svg" viewBox="0 0 937 149" width="937" height="149">
	<title>logo-on-white_c32d591b-svg</title>
	<style>
		.s0 { fill: #ffffff } 
		.s1 { fill: #ffa800 } 
	</style>
	<g id="Style-Guide">
		<g id="Page-1">
			<g id="Colors">
				<g id="logo-full-color">
					<g id="Shape">
						<path id="Layer" fill-rule="evenodd" class="s0" d="m530 45.4v61.2h-17.9v-106.6h17.9v28.6h17.5l5.5 16.8c0 0-23 0-23 0zm256.3 26.4h-55.6q0.8 9.6 6.2 15.3 5.5 5.6 14.1 5.6 6.7 0 11.1-3.2 1.9-1.4 6.1-6.5l15.1 8.8q-2.4 3.2-3.7 4.6-3.9 4.3-8.4 7.1-1.1 0.7-2.3 1.3-1.1 0.6-2.3 1.1-1.2 0.5-2.5 0.9-1.2 0.4-2.5 0.7-5.2 1.3-11.2 1.3-17.4 0-27.8-11.2-10.5-11.3-10.5-29.9 0-18.5 10.1-30 10.3-11.3 27.2-11.3 17.1 0 27.1 11 9.8 10.9 9.8 30.2c0 0 0 4.2 0 4.2zm-18.4-14.7q-3.8-14.4-18.1-14.4-3.2 0-6.1 1-0.7 0.2-1.4 0.5-0.7 0.3-1.3 0.7-0.7 0.4-1.3 0.8-0.6 0.4-1.2 0.9-0.6 0.4-1.1 1-0.6 0.5-1.1 1.1-0.5 0.5-1 1.1-0.4 0.6-0.8 1.3-1.7 2.6-2.6 6zm-111.4-31.6q3.5 0.1 6.9 0.9 3.3 0.7 6.5 2.1 3.1 1.4 5.9 3.4 2.8 2 5.2 4.5 2.4 2.5 4.3 5.4 1.8 2.9 3.1 6.1 1.3 3.2 2 6.6 0.6 3.4 0.6 6.8v44h-18.9v-44.6c0-9-7.5-16.4-16.5-16.5h-0.2c-9 0-16.7 7.8-16.7 17v44.1h-18.9v-44.4c-0.1-9.1-7.4-16.5-16.5-16.6h-0.2c-9.1 0-16.7 7.8-16.7 17v44h-18.5v-44.6c0-19.4 15.9-35.2 35.4-35.2q3.7 0 7.3 0.8 3.6 0.7 6.9 2.2 3.4 1.5 6.4 3.6 3 2.1 5.5 4.8 2.5-2.8 5.7-5 3.1-2.1 6.6-3.6 3.5-1.5 7.3-2.2 3.7-0.7 7.5-0.6 0 0 0 0zm220.2 35.7v44.1h-18.9v-44.4c-0.1-9.1-7.4-16.5-16.5-16.6h-0.2c-9 0-16.7 7.8-16.7 17v44h-18.5v-44.6c0-19.4 15.9-35.2 35.4-35.2q3.7 0 7.3 0.8 3.6 0.7 6.9 2.2 3.4 1.5 6.4 3.6 3 2.1 5.5 4.8c8.2 7.4 9.3 15.1 9.3 24.3zm37.9-15.8v61.2h-17.9v-106.6h17.9v28.6h22.4l-6 16.8zm-472.5-16.8h17.9v4.2c3.3-3.5 6.4-4.6 8.8-5.3 2.4-0.6 5.7-1.1 9.2-1.1q7.1 0 14.8 4.7l-7.7 13.7c-1.3-0.6-2.6-2.2-10.3-2-9.8 0.3-14.8 8.5-14.8 23.3v40.5h-17.9zm-46.8 0h17.9v77.9h-17.9v-8.1q-11.1 10.4-23.8 10.4-16.1 0-26.6-11.7-10.4-11.9-10.4-29.8 0-17.5 10.4-29.2 10.4-11.7 26.1-11.7 13.5 0 24.3 11.2c0 0 0-9 0-9zm-42.5 38.7q0 11.2 5.9 18.3 6.2 7.1 15.5 7.1 9.9 0 16-6.9 6.2-7.1 6.2-18.1 0-11-6.2-18.1-6.1-6.9-15.9-6.9-9.2 0-15.4 7-6.1 7.1-6.1 17.6zm-95.3 81.7h-17.9v-120.4h17.9v8.5q10.5-10.7 24-10.7 16 0 26.3 11.9 10.5 11.7 10.5 29.7 0 17.5-10.4 29.2-10.4 11.6-26.1 11.6-13.6 0-24.3-11zm42.5-80.9q0-11.2-6-18.3-6.2-7.1-15.5-7.1-9.8 0-15.9 6.9-6.2 6.9-6.2 18.1 0 10.9 6.2 18.1 6 6.9 15.9 6.9 9.3 0 15.3-7 6.2-7.1 6.2-17.6zm-79.7 3.7h-55.5q0.7 9.6 6.2 15.3 5.5 5.6 14.1 5.6 6.7 0 11.1-3.2 1.8-1.3 5.9-6.3l15.2 8.8q-2.4 3.1-3.6 4.5-3.9 4.2-8.4 7-1.1 0.7-2.3 1.3-1.1 0.6-2.4 1.1-1.2 0.5-2.4 0.9-1.2 0.4-2.5 0.7-5.2 1.3-11.2 1.3-17.4 0-27.9-11.2-10.5-11.3-10.5-29.9 0-18.5 10.2-30 10.3-11.3 27.2-11.3 17.1 0 27.1 11 9.8 10.9 9.8 30.2c0 0-0.1 4.2-0.1 4.2zm-18.3-14.6q-3.8-14.4-18.1-14.4-3.2 0-6.1 1-0.7 0.3-1.4 0.6-0.7 0.3-1.3 0.7-0.7 0.3-1.3 0.7-0.6 0.4-1.2 0.9-0.6 0.5-1.1 1-0.6 0.5-1.1 1.1-0.5 0.6-1 1.2-0.4 0.6-0.8 1.2-1.7 2.7-2.6 6z"/>
						<path id="Layer" fill-rule="evenodd" class="s1" d="m4.4 12h101.2c2.4 0 4.4 2 4.4 4.4v100.2c0 2.4-2 4.4-4.4 4.4h-101.2c-2.4 0-4.4-2-4.4-4.4v-100.2c0-2.4 2-4.4 4.4-4.4zm73.8 65.2c2.2 0 3.5-2.9 1.8-4.5l-41.6-42.9c-1.5-1.7-4.4-0.5-4.4 1.9v62.9c0 2.3 2.7 3.6 4.4 1.9l12.7-13.1 7.7 19c0.6 1.3 2.1 2 3.4 1.4l7.2-3.2q0.5-0.2 0.9-0.6 0.3-0.3 0.5-0.8 0.2-0.5 0.2-1.1 0-0.5-0.2-1l-8.1-19.9c0 0 15.5 0 15.5 0z"/>
					</g>
				</g>
			</g>
		</g>
	</g>
</svg>